<svg viewBox="0 0 128 128" xmlns="http://www.w3.org/2000/svg" id="technology">
  <defs>
  <style>
    @media(prefers-color-scheme:dark){:root{--color-logo-shape:#000;--color-logo-base:#fff}}
    body[data-color-scheme="dark"]{--color-logo-shape:#000;--color-logo-base:#fff}
  </style>
  <path id="d" d="m6,47l58-47,58,47-58,45z"/>
  <path id="s" d="m6,47v12l58,45v-12z"/>
  <path id="h" d="m70.7,24.7-9.1,7.3-3.9-3.1c-.7-.6-1.9-.6-2.6,0l-12.3,9.7c-.7.6-.8,1.5-.1,2.1l3.9,3.1-9.6,7.6c-1.6,1.2-1.8,2.6-.6,3.5l2.3,1.8,38.7-30.6-2.1-1.7c-1.1-.9-3.2-.9-4.6.3zm8.6,2.9-38.8,30.7,16.5,13.2c1,.8,2.3.9,3.5-.1l35.2-27.9c1.3-1,.8-2.1.1-2.7zm-22.9,4.4,2.5,2-9.7,7.7-2.6-2zm15.4,8.5c2.5-.1,4,1.4,4,1.4.1.2.2.1.3.1,1.8,0,2.1.2,2.2.3l-.3.3c-1.4,1.3-4.1,1.7-6.9,4.1,0-.3,0-.7-.1-1h-.6c.1,1.2,0,4-.5,4.4-.5-.1-1-2.1-1.4-.8l-.6.3c.2.5.4.9.6,1.2-2.8,3.9-3.2,7.8-3.2,8,0,.1.6,1.7,3.1,2.6-.4.3-1.1.7-1.7.8v-1.4c-.4-.1-.4.7-1.4,2.3-.3-1.4-.6-3-1.1-4.4-3-5.7-1.1-11.3-.9-11.8-.9-.6-1.9-.6-2.9-.3,1.5-2.5,3.6-3.4,5.2-3.5.2.1.2,0,1.2-.8,1.9-1.3,3.6-1.8,5-1.8zm1.5.9c-.5,0-1,.6-.5,1.1.6.6,1.5-.3.9-.9-.1-.1-.3-.2-.4-.2z"/>
  </defs>
  <use href="#s" fill="#9ee0ff"/>
  <use href="#s" fill="#6bd0ff" y="12"/>
  <use href="#s" fill="#38c0ff" y="24"/>
  <g transform="matrix(-1 0 0 1 128 0)">
    <use href="#s" fill="#f29eff"/>
    <use href="#s" fill="#eb6bff" y="12"/>
    <use href="#s" fill="#e438ff" y="24"/>
  </g>
  <use href="#d" style="fill:var(--color-logo-base,#000)"/>
  <use href="#h" style="fill:var(--color-logo-shape,#fff)"/>
</svg>
