<svg viewBox="0 0 128 128" xmlns="http://www.w3.org/2000/svg" id="technology">
  <defs>
  <style>
    @font-face { font-family: AvenirN; font-weight: 900; src: local("Avenir Next Bold"); }
    @font-face { font-family: AvenirN; font-weight: 400; src: local("Avenir Next Medium"); }
    @media(prefers-color-scheme: dark) {
      :root { --color-logo-shape: #000000; --color-logo-base: #ffffff; }
    }
    body[data-color-scheme="dark"] {
      --color-logo-shape: #000000; --color-logo-base: #ffffff;
    }
  </style>
  <path id="surface" d="m 6,47 l 58,-47 58,47 -58,45 z"/>
  <path id="strut"   d="m 6,47 v 12 l 58,45 v -12 z"/>
  <path id="shape"   d="
    m 70.7,24.7 -9.1,7.3 -3.9,-3.1
    c -0.7,-0.6 -1.9,-0.6 -2.6,0 l -12.3,9.7
    c -0.7,0.6 -0.8,1.5 -0.1,2.1 l 3.9,3.1 -9.6,7.6
    c -1.6,1.2 -1.8,2.6 -0.6,3.5 l 2.3,1.8 38.7,-30.6 -2.1,-1.7
    c -1.1,-0.9 -3.2,-0.9 -4.6,0.3 z
    m 8.6,2.9 -38.8,30.7 16.5,13.2 c 1,0.8 2.3,0.9 3.5,-0.1 l 35.2,-27.9 c 1.3,-1 0.8,-2.1 0.1,-2.7 z
    m -22.9,4.4 2.5,2 -9.7,7.7 -2.6,-2 z
    m 15.4,8.5
    c 2.5,-0.1 4,1.4 4,1.4 0.1,0.2 0.2,0.1 0.3,0.1 1.8,0 2.1,0.2 2.2,0.3 l -0.3,0.3
    c -1.4,1.3 -4.1,1.7 -6.9,4.1 0,-0.3 0,-0.7 -0.1,-1 h -0.6
    c 0.1,1.2 0,4 -0.5,4.4 -0.5,-0.1 -1,-2.1 -1.4,-0.8 l -0.6,0.3
    c 0.2,0.5 0.4,0.9 0.6,1.2 -2.8,3.9 -3.2,7.8 -3.2,8 0,0.1 0.6,1.7 3.1,2.6 -0.4,0.3 -1.1,0.7 -1.7,0.8
    v -1.4
    c -0.4,-0.1 -0.4,0.7 -1.4,2.3 -0.3,-1.4 -0.6,-3 -1.1,-4.4 -3,-5.7 -1.1,-11.3 -0.9,-11.8 -0.9,-0.6
      -1.9,-0.6 -2.9,-0.3 1.5,-2.5 3.6,-3.4 5.2,-3.5 0.2,0.1 0.2,0 1.2,-0.8 1.9,-1.3 3.6,-1.8 5,-1.8 z
    m 1.5,0.9 c -0.5,0 -1,0.6 -0.5,1.1 0.6,0.6 1.5,-0.3 0.9,-0.9 -0.1,-0.1 -0.3,-0.2 -0.4,-0.2 z
  "/>
  </defs>
  <use href="#strut" fill="#9ee0ff"/>
  <use href="#strut" fill="#6bd0ff" y="12"/>
  <use href="#strut" fill="#38c0ff" y="24"/>
  <g transform="matrix(-1 0 0 1 128 0)">
    <use href="#strut" fill="#f29eff"/>
    <use href="#strut" fill="#eb6bff" y="12"/>
    <use href="#strut" fill="#e438ff" y="24"/>
  </g>
  <use href="#surface" style="fill: var(--color-logo-base, #000000);"/>
  <use href="#shape" style="fill: var(--color-logo-shape, #ffffff);"/>
</svg>
